<svg width="44" height="44" viewBox="0 0 44 44" fill="none" xmlns="http://www.w3.org/2000/svg">
  <rect x="0.499756" y="0.5" width="43" height="43" rx="21.5" fill="#186327" />
  <rect x="0.499756" y="0.5" width="43" height="43" rx="21.5" stroke="#186327" />
  <path
    d="M34.6322 32.591L29.1915 27.1503C30.5014 25.4065 31.2085 23.284 31.2061 21.103C31.2061 15.5323 26.6738 11 21.103 11C15.5323 11 11 15.5323 11 21.103C11 26.6738 15.5323 31.2061 21.103 31.2061C23.284 31.2085 25.4065 30.5014 27.1503 29.1915L32.591 34.6322C32.8664 34.8783 33.2256 35.0098 33.5948 34.9994C33.9641 34.9891 34.3154 34.8378 34.5766 34.5766C34.8378 34.3154 34.9891 33.9641 34.9994 33.5948C35.0098 33.2256 34.8783 32.8664 34.6322 32.591ZM13.8866 21.103C13.8866 19.6758 14.3098 18.2805 15.1028 17.0938C15.8957 15.9071 17.0228 14.9821 18.3414 14.4359C19.6601 13.8897 21.111 13.7468 22.5109 14.0252C23.9108 14.3037 25.1966 14.991 26.2058 16.0002C27.2151 17.0095 27.9024 18.2953 28.1808 19.6952C28.4593 21.095 28.3164 22.546 27.7702 23.8647C27.224 25.1833 26.299 26.3103 25.1123 27.1033C23.9255 27.8963 22.5303 28.3195 21.103 28.3195C19.1898 28.3172 17.3556 27.5562 16.0028 26.2033C14.6499 24.8505 13.8889 23.0163 13.8866 21.103Z"
    fill="white" />
</svg>
