<svg width="156" height="50" viewBox="0 0 156 50" fill="none" xmlns="http://www.w3.org/2000/svg">
<circle cx="25" cy="25" r="25" fill="#186327"/>
<path d="M19.065 42.405C17.745 42.405 16.71 42.045 15.96 41.325C15.24 40.575 14.88 39.51 14.88 38.13V14.55C14.88 13.17 15.24 12.12 15.96 11.4C16.71 10.65 17.79 10.275 19.2 10.275H34.185C35.265 10.275 36.075 10.545 36.615 11.085C37.155 11.625 37.425 12.405 37.425 13.425C37.425 14.475 37.155 15.285 36.615 15.855C36.075 16.395 35.265 16.665 34.185 16.665H23.16V23.055H33.195C34.245 23.055 35.04 23.325 35.58 23.865C36.15 24.405 36.435 25.185 36.435 26.205C36.435 27.255 36.15 28.05 35.58 28.59C35.04 29.13 34.245 29.4 33.195 29.4H23.16V38.13C23.16 40.98 21.795 42.405 19.065 42.405Z" fill="white"/>
<path d="M62.186 34.208C61.666 34.208 61.2587 34.0693 60.964 33.792C60.6867 33.4973 60.548 33.0813 60.548 32.544V23.73H59.352C58.936 23.73 58.6153 23.626 58.39 23.418C58.1647 23.1927 58.052 22.8893 58.052 22.508C58.052 22.1093 58.1647 21.806 58.39 21.598C58.6153 21.39 58.936 21.286 59.352 21.286H61.484L60.548 22.144V21.26C60.548 19.5093 60.99 18.1833 61.874 17.282C62.758 16.3807 64.0407 15.8433 65.722 15.67L66.502 15.592C66.9007 15.5573 67.2127 15.6093 67.438 15.748C67.6807 15.8867 67.8367 16.0773 67.906 16.32C67.9927 16.5453 68.01 16.788 67.958 17.048C67.906 17.2907 67.802 17.5073 67.646 17.698C67.49 17.8713 67.2907 17.9667 67.048 17.984L66.424 18.036C65.5053 18.1053 64.838 18.3567 64.422 18.79C64.006 19.2233 63.798 19.8733 63.798 20.74V21.702L63.382 21.286H70.584C71.104 21.286 71.5027 21.442 71.78 21.754C72.0573 22.0487 72.196 22.4733 72.196 23.028V32.414C72.196 32.9687 72.0573 33.402 71.78 33.714C71.52 34.026 71.1213 34.182 70.584 34.182C70.064 34.182 69.6567 34.026 69.362 33.714C69.0847 33.402 68.946 32.9687 68.946 32.414V23.73H63.798V32.544C63.798 33.6533 63.2607 34.208 62.186 34.208ZM70.636 18.686C70.0467 18.686 69.5873 18.5387 69.258 18.244C68.946 17.932 68.79 17.5073 68.79 16.97C68.79 16.4153 68.946 15.9907 69.258 15.696C69.5873 15.4013 70.0467 15.254 70.636 15.254C71.2427 15.254 71.702 15.4013 72.014 15.696C72.3433 15.9907 72.508 16.4153 72.508 16.97C72.508 17.5073 72.3433 17.932 72.014 18.244C71.702 18.5387 71.2427 18.686 70.636 18.686ZM77.1965 34.208C76.6765 34.208 76.2779 34.0693 76.0005 33.792C75.7232 33.4973 75.5845 33.0813 75.5845 32.544V22.716C75.5845 22.1787 75.7232 21.7713 76.0005 21.494C76.2779 21.2167 76.6679 21.078 77.1705 21.078C77.6732 21.078 78.0632 21.2167 78.3405 21.494C78.6179 21.7713 78.7565 22.1787 78.7565 22.716V24.484L78.4705 23.834C78.8519 22.9153 79.4412 22.222 80.2385 21.754C81.0532 21.2687 81.9719 21.026 82.9945 21.026C84.0172 21.026 84.8579 21.2167 85.5165 21.598C86.1752 21.9793 86.6692 22.56 86.9985 23.34C87.3279 24.1027 87.4925 25.0733 87.4925 26.252V32.544C87.4925 33.0813 87.3539 33.4973 87.0765 33.792C86.7992 34.0693 86.4005 34.208 85.8805 34.208C85.3605 34.208 84.9532 34.0693 84.6585 33.792C84.3812 33.4973 84.2425 33.0813 84.2425 32.544V26.408C84.2425 25.42 84.0519 24.7007 83.6705 24.25C83.3065 23.7993 82.7345 23.574 81.9545 23.574C81.0012 23.574 80.2385 23.8773 79.6665 24.484C79.1119 25.0733 78.8345 25.862 78.8345 26.85V32.544C78.8345 33.6533 78.2885 34.208 77.1965 34.208ZM96.7215 38.94C95.7855 38.94 94.8755 38.8533 93.9915 38.68C93.1248 38.5067 92.3362 38.238 91.6255 37.874C91.2962 37.7007 91.0708 37.4927 90.9495 37.25C90.8455 37.0073 90.8108 36.756 90.8455 36.496C90.8975 36.2533 91.0015 36.0367 91.1575 35.846C91.3308 35.6553 91.5388 35.5253 91.7815 35.456C92.0242 35.3867 92.2755 35.4213 92.5355 35.56C93.2982 35.9413 94.0175 36.184 94.6935 36.288C95.3868 36.4093 95.9762 36.47 96.4615 36.47C97.6228 36.47 98.4895 36.184 99.0615 35.612C99.6508 35.0573 99.9455 34.2253 99.9455 33.116V30.776H100.18C99.9195 31.66 99.3735 32.3707 98.5415 32.908C97.7268 33.428 96.7995 33.688 95.7595 33.688C94.6155 33.688 93.6188 33.428 92.7695 32.908C91.9202 32.3707 91.2615 31.6253 90.7935 30.672C90.3255 29.7187 90.0915 28.6093 90.0915 27.344C90.0915 26.3907 90.2215 25.5327 90.4815 24.77C90.7588 23.99 91.1402 23.3227 91.6255 22.768C92.1282 22.2133 92.7262 21.7887 93.4195 21.494C94.1302 21.182 94.9102 21.026 95.7595 21.026C96.8342 21.026 97.7702 21.2947 98.5675 21.832C99.3822 22.352 99.9108 23.0453 100.154 23.912L99.8935 24.562V22.716C99.8935 22.1787 100.032 21.7713 100.31 21.494C100.604 21.2167 101.003 21.078 101.506 21.078C102.026 21.078 102.424 21.2167 102.702 21.494C102.979 21.7713 103.118 22.1787 103.118 22.716V32.726C103.118 34.7887 102.572 36.34 101.48 37.38C100.388 38.42 98.8015 38.94 96.7215 38.94ZM96.6435 31.218C97.3195 31.218 97.9002 31.062 98.3855 30.75C98.8708 30.438 99.2435 29.996 99.5035 29.424C99.7808 28.8347 99.9195 28.1413 99.9195 27.344C99.9195 26.148 99.6248 25.212 99.0355 24.536C98.4462 23.8427 97.6488 23.496 96.6435 23.496C95.9675 23.496 95.3868 23.652 94.9015 23.964C94.4162 24.276 94.0348 24.718 93.7575 25.29C93.4975 25.862 93.3675 26.5467 93.3675 27.344C93.3675 28.54 93.6622 29.4847 94.2515 30.178C94.8408 30.8713 95.6382 31.218 96.6435 31.218ZM112.283 34.26C110.966 34.26 109.822 33.9913 108.851 33.454C107.88 32.9167 107.126 32.154 106.589 31.166C106.052 30.1607 105.783 28.982 105.783 27.63C105.783 26.6073 105.93 25.6973 106.225 24.9C106.537 24.0853 106.979 23.392 107.551 22.82C108.123 22.2307 108.808 21.7887 109.605 21.494C110.402 21.182 111.295 21.026 112.283 21.026C113.6 21.026 114.744 21.2947 115.715 21.832C116.686 22.3693 117.44 23.132 117.977 24.12C118.514 25.108 118.783 26.278 118.783 27.63C118.783 28.6527 118.627 29.5713 118.315 30.386C118.02 31.2007 117.587 31.9027 117.015 32.492C116.443 33.064 115.758 33.506 114.961 33.818C114.164 34.1127 113.271 34.26 112.283 34.26ZM112.283 31.79C112.924 31.79 113.488 31.634 113.973 31.322C114.458 31.01 114.831 30.5507 115.091 29.944C115.368 29.32 115.507 28.5487 115.507 27.63C115.507 26.2433 115.212 25.212 114.623 24.536C114.034 23.8427 113.254 23.496 112.283 23.496C111.642 23.496 111.078 23.652 110.593 23.964C110.108 24.2587 109.726 24.718 109.449 25.342C109.189 25.9487 109.059 26.7113 109.059 27.63C109.059 28.9993 109.354 30.0393 109.943 30.75C110.532 31.4433 111.312 31.79 112.283 31.79ZM126.359 34.208C125.926 34.208 125.545 34.0953 125.215 33.87C124.903 33.6447 124.643 33.298 124.435 32.83L120.301 23.236C120.145 22.8547 120.085 22.4993 120.119 22.17C120.171 21.8407 120.327 21.5807 120.587 21.39C120.865 21.182 121.237 21.078 121.705 21.078C122.104 21.078 122.425 21.1733 122.667 21.364C122.91 21.5373 123.127 21.8753 123.317 22.378L126.827 31.14H126.047L129.661 22.352C129.852 21.8667 130.069 21.5373 130.311 21.364C130.571 21.1733 130.918 21.078 131.351 21.078C131.733 21.078 132.036 21.182 132.261 21.39C132.487 21.5807 132.625 21.8407 132.677 22.17C132.729 22.482 132.669 22.8287 132.495 23.21L128.283 32.83C128.093 33.298 127.833 33.6447 127.503 33.87C127.191 34.0953 126.81 34.208 126.359 34.208ZM140.467 34.26C139.149 34.26 138.005 33.9913 137.035 33.454C136.064 32.9167 135.31 32.154 134.773 31.166C134.235 30.1607 133.967 28.982 133.967 27.63C133.967 26.6073 134.114 25.6973 134.409 24.9C134.721 24.0853 135.163 23.392 135.735 22.82C136.307 22.2307 136.991 21.7887 137.789 21.494C138.586 21.182 139.479 21.026 140.467 21.026C141.784 21.026 142.928 21.2947 143.899 21.832C144.869 22.3693 145.623 23.132 146.161 24.12C146.698 25.108 146.967 26.278 146.967 27.63C146.967 28.6527 146.811 29.5713 146.499 30.386C146.204 31.2007 145.771 31.9027 145.199 32.492C144.627 33.064 143.942 33.506 143.145 33.818C142.347 34.1127 141.455 34.26 140.467 34.26ZM140.467 31.79C141.108 31.79 141.671 31.634 142.157 31.322C142.642 31.01 143.015 30.5507 143.275 29.944C143.552 29.32 143.691 28.5487 143.691 27.63C143.691 26.2433 143.396 25.212 142.807 24.536C142.217 23.8427 141.437 23.496 140.467 23.496C139.825 23.496 139.262 23.652 138.777 23.964C138.291 24.2587 137.91 24.718 137.633 25.342C137.373 25.9487 137.243 26.7113 137.243 27.63C137.243 28.9993 137.537 30.0393 138.127 30.75C138.716 31.4433 139.496 31.79 140.467 31.79Z" fill="#186327"/>
</svg>
